<svg width="1920" height="1080" viewBox="0 0 1920 1080" fill="none" xmlns="http://www.w3.org/2000/svg">
<rect width="1920" height="1080" fill="#EF4444"/>
<path d="M692 464C692 447.431 705.431 434 722 434H1228V616C1228 632.569 1214.57 646 1198 646H692V464Z" fill="black"/>
<path d="M775.462 579V507.96H825.334V520.44H790.87V566.52H825.814V579H775.462ZM784.726 548.904V536.424H820.438V548.904H784.726ZM848.911 579L830.143 507.96H845.935L861.967 572.136H858.079L875.215 507.96H892.447L909.007 572.136H905.407L921.823 507.96H936.607L917.839 579H897.823L881.647 517.464H885.775L868.927 579H848.911ZM961.222 579.912C957.798 579.912 954.358 579.64 950.902 579.096C947.478 578.584 944.31 577.848 941.398 576.888V564.216C943.414 564.888 945.558 565.464 947.83 565.944C950.102 566.392 952.374 566.744 954.646 567C956.95 567.256 959.126 567.384 961.174 567.384C965.942 567.384 969.318 566.664 971.302 565.224C973.286 563.752 974.278 561.704 974.278 559.08C974.278 556.872 973.542 555.144 972.07 553.896C970.63 552.648 967.926 551.512 963.958 550.488L958.582 549.096C952.374 547.528 947.67 545.096 944.47 541.8C941.302 538.472 939.718 534.088 939.718 528.648C939.718 521.864 942.166 516.568 947.062 512.76C951.99 508.952 959.398 507.048 969.286 507.048C972.486 507.048 975.526 507.24 978.406 507.624C981.318 507.976 983.894 508.472 986.134 509.112V521.784C983.862 521.08 981.334 520.536 978.55 520.152C975.766 519.768 972.966 519.576 970.15 519.576C966.438 519.576 963.494 519.928 961.318 520.632C959.142 521.304 957.574 522.264 956.614 523.512C955.686 524.76 955.222 526.2 955.222 527.832C955.222 529.912 955.862 531.544 957.142 532.728C958.422 533.912 960.822 534.984 964.342 535.944L969.67 537.336C974.278 538.456 978.07 539.944 981.046 541.8C984.022 543.624 986.214 545.88 987.622 548.568C989.062 551.224 989.782 554.376 989.782 558.024C989.782 562.568 988.646 566.488 986.374 569.784C984.134 573.048 980.886 575.56 976.63 577.32C972.374 579.048 967.238 579.912 961.222 579.912ZM1036.98 579.816C1027.99 579.816 1020.49 578.52 1014.47 575.928C1008.45 573.304 1003.94 569.32 1000.93 563.976C997.927 558.632 996.423 551.848 996.423 543.624C996.423 535.464 997.975 528.68 1001.08 523.272C1004.18 517.864 1008.73 513.816 1014.71 511.128C1020.69 508.408 1028.02 507.048 1036.69 507.048C1039.48 507.048 1042.2 507.192 1044.85 507.48C1047.54 507.768 1050.17 508.216 1052.73 508.824V521.688C1050.23 521.08 1047.77 520.632 1045.33 520.344C1042.93 520.056 1040.52 519.912 1038.09 519.912C1032.29 519.912 1027.53 520.712 1023.78 522.312C1020.04 523.912 1017.24 526.472 1015.38 529.992C1013.56 533.48 1012.65 538.104 1012.65 543.864C1012.65 549.24 1013.49 553.64 1015.19 557.064C1016.92 560.456 1019.49 562.968 1022.92 564.6C1026.34 566.2 1030.63 567 1035.78 567C1037.73 567 1039.67 566.936 1041.59 566.808C1043.51 566.648 1045.27 566.44 1046.87 566.184L1040.2 571.992V544.44H1054.74V578.232C1051.67 578.744 1048.66 579.128 1045.72 579.384C1042.81 579.672 1039.89 579.816 1036.98 579.816ZM1067.21 579V507.96H1082.81V579H1067.21ZM1112.27 579V520.92H1089.86V507.96H1150.29V520.92H1127.92V579H1112.27Z" fill="#EF4444"/>
</svg>
