<svg width="256" height="256" viewBox="0 0 256 256" fill="none" xmlns="http://www.w3.org/2000/svg">
<rect width="256" height="256" fill="#E3E6E8"/>
<rect width="256" height="256" fill="#EF4444"/>
<path fill-rule="evenodd" clip-rule="evenodd" d="M80.5 61C79.1193 61 78 62.1193 78 63.5V191.833C78 193.214 79.1193 194.333 80.5 194.333H83.7471V61H80.5ZM105.586 61H99.8391V194.333H105.586V61ZM89.4943 61H95.2414V194.333H89.4943V61ZM175.5 61H111.333V66.7471H178V63.5C178 62.1193 176.881 61 175.5 61ZM111.333 82.8391H178V86.0862C178 87.4669 176.881 88.5862 175.5 88.5862H111.333V82.8391ZM175.5 166.747H111.333V172.494H178V169.247C178 167.866 176.881 166.747 175.5 166.747ZM111.333 178.241H178V183.989H111.333V178.241ZM178 188.586H111.333V194.333H175.5C176.881 194.333 178 193.214 178 191.833V188.586ZM111.333 135.713H167.655V138.96C167.655 140.34 166.536 141.46 165.155 141.46H111.333V135.713ZM165.155 113.874H111.333V119.621H167.655V116.374C167.655 114.993 166.536 113.874 165.155 113.874ZM111.333 125.368H167.655V131.115H111.333V125.368ZM178 71.3448H111.333V77.092H178V71.3448Z" fill="black"/>
</svg>
