<svg width="256" height="256" viewBox="0 0 256 256" fill="none" xmlns="http://www.w3.org/2000/svg">
<rect width="256" height="256" fill="#E3E6E8"/>
<rect width="256" height="256" fill="#EF4444"/>
<path d="M58 30.5H225.5V198C225.5 213.188 213.188 225.5 198 225.5H30.5V58C30.5 42.8122 42.8122 30.5 58 30.5Z" stroke="black" stroke-width="5"/>
<path fill-rule="evenodd" clip-rule="evenodd" d="M87.5 70C86.1193 70 85 71.1193 85 72.5V183.5C85 184.881 86.1193 186 87.5 186H90V70H87.5ZM109 70H104V186H109V70ZM95 70H100V186H95V70ZM169.5 70H114V75H172V72.5C172 71.1193 170.881 70 169.5 70ZM114 89H172V91.5C172 92.8807 170.881 94 169.5 94H114V89ZM169.5 162H114V167H172V164.5C172 163.119 170.881 162 169.5 162ZM114 172H172V177H114V172ZM172 181H114V186H169.5C170.881 186 172 184.881 172 183.5V181ZM114 135H163V137.5C163 138.881 161.881 140 160.5 140H114V135ZM160.5 116H114V121H163V118.5C163 117.119 161.881 116 160.5 116ZM114 126H163V131H114V126ZM172 79H114V84H172V79Z" fill="black"/>
</svg>
