<svg width="256" height="256" viewBox="0 0 256 256" fill="none" xmlns="http://www.w3.org/2000/svg">
<rect width="256" height="256" fill="#E3E6E8"/>
<rect width="256" height="256" fill="#EF4444"/>
<path d="M78 50.5H205.5V178C205.5 193.188 193.188 205.5 178 205.5H50.5V78C50.5 62.8122 62.8122 50.5 78 50.5Z" stroke="black" stroke-width="5"/>
<path fill-rule="evenodd" clip-rule="evenodd" d="M90.5 75C89.1193 75 88 76.1193 88 77.5V178.5C88 179.881 89.1193 181 90.5 181H92.569V75H90.5ZM109.931 75H105.362V181H109.931V75ZM97.1379 75H101.707V181H97.1379V75ZM165 75H114.5V79.569H167.5V77.5C167.5 76.1193 166.381 75 165 75ZM114.5 92.3621H167.5V94.431C167.5 95.8117 166.381 96.931 165 96.931H114.5V92.3621ZM165 159.069H114.5V163.638H167.5V161.569C167.5 160.188 166.381 159.069 165 159.069ZM114.5 168.207H167.5V172.776H114.5V168.207ZM167.5 176.431H114.5V181H165C166.381 181 167.5 179.881 167.5 178.5V176.431ZM114.5 134.397H159.276V136.466C159.276 137.846 158.157 138.966 156.776 138.966H114.5V134.397ZM156.776 117.034H114.5V121.603H159.276V119.534C159.276 118.154 158.157 117.034 156.776 117.034ZM114.5 126.172H159.276V130.741H114.5V126.172ZM167.5 83.2241H114.5V87.7931H167.5V83.2241Z" fill="black"/>
</svg>
