<svg width="768" height="256" viewBox="0 0 768 256" fill="none" xmlns="http://www.w3.org/2000/svg">
<rect width="768" height="256" fill="white"/>
<rect width="768" height="256" fill="#EF4444"/>
<path d="M564 24.5H743.5V204C743.5 219.188 731.188 231.5 716 231.5H536.5V52C536.5 36.8122 548.812 24.5 564 24.5Z" stroke="black" stroke-width="5"/>
<path d="M22 52C22 35.4315 35.4315 22 52 22H515V204C515 220.569 501.569 234 485 234H22V52Z" fill="black"/>
<path d="M83.9621 167V95.96H133.834V108.44H99.3701V154.52H134.314V167H83.9621ZM93.2261 136.904V124.424H128.938V136.904H93.2261ZM157.411 167L138.643 95.96H154.435L170.467 160.136H166.579L183.715 95.96H200.947L217.507 160.136H213.907L230.323 95.96H245.107L226.339 167H206.323L190.147 105.464H194.275L177.427 167H157.411ZM269.722 167.912C266.298 167.912 262.858 167.64 259.402 167.096C255.978 166.584 252.81 165.848 249.898 164.888V152.216C251.914 152.888 254.058 153.464 256.33 153.944C258.602 154.392 260.874 154.744 263.146 155C265.45 155.256 267.626 155.384 269.674 155.384C274.442 155.384 277.818 154.664 279.802 153.224C281.786 151.752 282.778 149.704 282.778 147.08C282.778 144.872 282.042 143.144 280.57 141.896C279.13 140.648 276.426 139.512 272.458 138.488L267.082 137.096C260.874 135.528 256.17 133.096 252.97 129.8C249.802 126.472 248.218 122.088 248.218 116.648C248.218 109.864 250.666 104.568 255.562 100.76C260.49 96.952 267.898 95.048 277.786 95.048C280.986 95.048 284.026 95.24 286.906 95.624C289.818 95.976 292.394 96.472 294.634 97.112V109.784C292.362 109.08 289.834 108.536 287.05 108.152C284.266 107.768 281.466 107.576 278.65 107.576C274.938 107.576 271.994 107.928 269.818 108.632C267.642 109.304 266.074 110.264 265.114 111.512C264.186 112.76 263.722 114.2 263.722 115.832C263.722 117.912 264.362 119.544 265.642 120.728C266.922 121.912 269.322 122.984 272.842 123.944L278.17 125.336C282.778 126.456 286.57 127.944 289.546 129.8C292.522 131.624 294.714 133.88 296.122 136.568C297.562 139.224 298.282 142.376 298.282 146.024C298.282 150.568 297.146 154.488 294.874 157.784C292.634 161.048 289.386 163.56 285.13 165.32C280.874 167.048 275.738 167.912 269.722 167.912ZM345.483 167.816C336.491 167.816 328.987 166.52 322.971 163.928C316.955 161.304 312.443 157.32 309.435 151.976C306.427 146.632 304.923 139.848 304.923 131.624C304.923 123.464 306.475 116.68 309.579 111.272C312.683 105.864 317.227 101.816 323.211 99.128C329.195 96.408 336.523 95.048 345.195 95.048C347.979 95.048 350.699 95.192 353.355 95.48C356.043 95.768 358.667 96.216 361.227 96.824V109.688C358.731 109.08 356.267 108.632 353.835 108.344C351.435 108.056 349.019 107.912 346.587 107.912C340.795 107.912 336.027 108.712 332.283 110.312C328.539 111.912 325.739 114.472 323.883 117.992C322.059 121.48 321.147 126.104 321.147 131.864C321.147 137.24 321.995 141.64 323.691 145.064C325.419 148.456 327.995 150.968 331.419 152.6C334.843 154.2 339.131 155 344.283 155C346.235 155 348.171 154.936 350.091 154.808C352.011 154.648 353.771 154.44 355.371 154.184L348.699 159.992V132.44H363.243V166.232C360.171 166.744 357.163 167.128 354.219 167.384C351.307 167.672 348.395 167.816 345.483 167.816ZM375.712 167V95.96H391.312V167H375.712ZM420.774 167V108.92H398.358V95.96H458.79V108.92H436.422V167H420.774Z" fill="#EF4444"/>
<path fill-rule="evenodd" clip-rule="evenodd" d="M598.5 70C597.119 70 596 71.1193 596 72.5V183.5C596 184.881 597.119 186 598.5 186H601V70H598.5ZM620 70H615V186H620V70ZM606 70H611V186H606V70ZM680.5 70H625V75H683V72.5C683 71.1193 681.881 70 680.5 70ZM625 89H683V91.5C683 92.8807 681.881 94 680.5 94H625V89ZM680.5 162H625V167H683V164.5C683 163.119 681.881 162 680.5 162ZM625 172H683V177H625V172ZM683 181H625V186H680.5C681.881 186 683 184.881 683 183.5V181ZM625 135H674V137.5C674 138.881 672.881 140 671.5 140H625V135ZM671.5 116H625V121H674V118.5C674 117.119 672.881 116 671.5 116ZM625 126H674V131H625V126ZM683 79H625V84H683V79Z" fill="black"/>
</svg>
