<svg width="536" height="212" viewBox="0 0 536 212" fill="none" xmlns="http://www.w3.org/2000/svg">
<g clip-path="url(#clip0_129_37)">
<path d="M0 50C0 22.3858 22.3858 0 50 0H522C529.732 0 536 6.26801 536 14V162C536 189.614 513.614 212 486 212H14C6.26802 212 0 205.732 0 198V50Z" fill="black"/>
<path d="M56.5504 151V69.6H113.695V83.9H74.2054V136.7H114.245V151H56.5504ZM67.1654 116.515V102.215H108.085V116.515H67.1654ZM140.711 151L119.206 69.6H137.301L155.671 143.135H151.216L170.851 69.6H190.596L209.571 143.135H205.446L224.256 69.6H241.196L219.691 151H196.756L178.221 80.49H182.951L163.646 151H140.711ZM269.4 152.045C265.477 152.045 261.535 151.733 257.575 151.11C253.652 150.523 250.022 149.68 246.685 148.58V134.06C248.995 134.83 251.452 135.49 254.055 136.04C256.659 136.553 259.262 136.957 261.865 137.25C264.505 137.543 266.999 137.69 269.345 137.69C274.809 137.69 278.677 136.865 280.95 135.215C283.224 133.528 284.36 131.182 284.36 128.175C284.36 125.645 283.517 123.665 281.83 122.235C280.18 120.805 277.082 119.503 272.535 118.33L266.375 116.735C259.262 114.938 253.872 112.152 250.205 108.375C246.575 104.562 244.76 99.5383 244.76 93.305C244.76 85.5317 247.565 79.4633 253.175 75.1C258.822 70.7367 267.31 68.555 278.64 68.555C282.307 68.555 285.79 68.775 289.09 69.215C292.427 69.6183 295.379 70.1867 297.945 70.92V85.44C295.342 84.6333 292.445 84.01 289.255 83.57C286.065 83.13 282.857 82.91 279.63 82.91C275.377 82.91 272.004 83.3133 269.51 84.12C267.017 84.89 265.22 85.99 264.12 87.42C263.057 88.85 262.525 90.5 262.525 92.37C262.525 94.7533 263.259 96.6233 264.725 97.98C266.192 99.3367 268.942 100.565 272.975 101.665L279.08 103.26C284.36 104.543 288.705 106.248 292.115 108.375C295.525 110.465 298.037 113.05 299.65 116.13C301.3 119.173 302.125 122.785 302.125 126.965C302.125 132.172 300.824 136.663 298.22 140.44C295.654 144.18 291.932 147.058 287.055 149.075C282.179 151.055 276.294 152.045 269.4 152.045ZM356.209 151.935C345.906 151.935 337.308 150.45 330.414 147.48C323.521 144.473 318.351 139.908 314.904 133.785C311.458 127.662 309.734 119.888 309.734 110.465C309.734 101.115 311.513 93.3417 315.069 87.145C318.626 80.9483 323.833 76.31 330.689 73.23C337.546 70.1133 345.943 68.555 355.879 68.555C359.069 68.555 362.186 68.72 365.229 69.05C368.309 69.38 371.316 69.8933 374.249 70.59V85.33C371.389 84.6333 368.566 84.12 365.779 83.79C363.029 83.46 360.261 83.295 357.474 83.295C350.838 83.295 345.374 84.2117 341.084 86.045C336.794 87.8783 333.586 90.8117 331.459 94.845C329.369 98.8417 328.324 104.14 328.324 110.74C328.324 116.9 329.296 121.942 331.239 125.865C333.219 129.752 336.171 132.63 340.094 134.5C344.018 136.333 348.931 137.25 354.834 137.25C357.071 137.25 359.289 137.177 361.489 137.03C363.689 136.847 365.706 136.608 367.539 136.315L359.894 142.97V111.4H376.559V150.12C373.039 150.707 369.593 151.147 366.219 151.44C362.883 151.77 359.546 151.935 356.209 151.935ZM390.847 151V69.6H408.722V151H390.847ZM442.481 151V84.45H416.796V69.6H486.041V84.45H460.411V151H442.481Z" fill="#EF4444"/>
</g>
<defs>
<clipPath id="clip0_129_37">
<path d="M0 50C0 22.3858 22.3858 0 50 0H522C529.732 0 536 6.26801 536 14V162C536 189.614 513.614 212 486 212H14C6.26802 212 0 205.732 0 198V50Z" fill="white"/>
</clipPath>
</defs>
</svg>
